HIERARCHY
ROOT root
{
	OFFSET 0.000000 0.000000 0.000000
	CHANNELS 6 Xposition Yposition Zposition Zrotation Yrotation Xrotation
	JOINT lhip
	{
		OFFSET 0.058581 -0.082280 -0.017664
		CHANNELS 3 Zrotation Yrotation Xrotation
		JOINT lknee
		{
			OFFSET 0.043451 -0.386469 0.008037
			CHANNELS 3 Zrotation Yrotation Xrotation
			JOINT lankle
			{
				OFFSET -0.014790 -0.426874 -0.037428
				CHANNELS 3 Zrotation Yrotation Xrotation
				JOINT ltoe
				{
					OFFSET 0.041054 -0.060286 0.122042
					CHANNELS 3 Zrotation Yrotation Xrotation
					End Site
					{
						OFFSET 0.000000 0.000000 0.000000
					}
				}
			}
		}
	}
	JOINT rhip
	{
		OFFSET -0.060310 -0.090513 -0.013543
		CHANNELS 3 Zrotation Yrotation Xrotation
		JOINT rknee
		{
			OFFSET -0.043257 -0.383688 -0.004843
			CHANNELS 3 Zrotation Yrotation Xrotation
			JOINT rankle
			{
				OFFSET 0.019056 -0.420046 -0.034562
				CHANNELS 3 Zrotation Yrotation Xrotation
				JOINT rtoe
				{
					OFFSET -0.034840 -0.062106 0.130323
					CHANNELS 3 Zrotation Yrotation Xrotation
					End Site
					{
						OFFSET 0.000000 0.000000 0.000000
					}
				}
			}
		}
	}
	JOINT lowerback
	{
		OFFSET 0.004439 0.124404 -0.038385
		CHANNELS 3 Zrotation Yrotation Xrotation
		JOINT upperback
		{
			OFFSET 0.004488 0.137956 0.026820
			CHANNELS 3 Zrotation Yrotation Xrotation
			JOINT chest
			{
				OFFSET -0.002265 0.056032 0.002855
				CHANNELS 3 Zrotation Yrotation Xrotation
				JOINT lowerneck
				{
					OFFSET -0.013390 0.211636 -0.033468
					CHANNELS 3 Zrotation Yrotation Xrotation
					JOINT upperneck
					{
						OFFSET 0.010113 0.088937 0.050410
						CHANNELS 3 Zrotation Yrotation Xrotation
						End Site
						{
							OFFSET 0.000000 0.000000 0.000000
						}
					}
				}
				JOINT lclavicle
				{
					OFFSET 0.071702 0.114000 -0.018898
					CHANNELS 3 Zrotation Yrotation Xrotation
					JOINT lshoulder
					{
						OFFSET 0.122921 0.045205 -0.019046
						CHANNELS 3 Zrotation Yrotation Xrotation
						JOINT lelbow
						{
							OFFSET 0.255332 -0.015649 -0.022946
							CHANNELS 3 Zrotation Yrotation Xrotation
							JOINT lwrist
							{
								OFFSET 0.265709 0.012698 -0.007375
								CHANNELS 3 Zrotation Yrotation Xrotation
								End Site
								{
									OFFSET 0.000000 0.000000 0.000000
								}
							}
						}
					}
				}
				JOINT rclavicle
				{
					OFFSET -0.082954 0.112472 -0.023707
					CHANNELS 3 Zrotation Yrotation Xrotation
					JOINT rshoulder
					{
						OFFSET -0.113228 0.046853 -0.008472
						CHANNELS 3 Zrotation Yrotation Xrotation
						JOINT relbow
						{
							OFFSET -0.260127 -0.014369 -0.031269
							CHANNELS 3 Zrotation Yrotation Xrotation
							JOINT rwrist
							{
								OFFSET -0.269108 0.006794 -0.006027
								CHANNELS 3 Zrotation Yrotation Xrotation
								End Site
								{
									OFFSET 0.000000 0.000000 0.000000
								}
							}
						}
					}
				}
			}
		}
	}
}
MOTION
Frames: 8
Frame Time: 0.033333
-0.067419 0.873594 1.000826 -103.000691 -0.907285 85.417026 -1.838440 3.459005 -0.639393 -4.979251 1.884976 1.381772 4.863352 12.300058 -9.565414 0.000000 -0.000000 0.000000 1.386085 -6.727620 7.033624 3.832156 0.707448 12.435505 1.745538 -4.271235 -11.843880 0.000000 -0.000000 0.000000 0.421303 4.077508 4.659234 3.328221 -3.368514 1.992623 1.464303 1.367504 -7.745601 6.164890 10.658608 -6.436701 7.078797 15.325495 20.685157 -28.606001 -4.825591 4.877340 -46.064824 3.990157 16.060972 -20.577245 -25.075481 1.412394 25.952076 -0.502953 -16.862040 31.010201 9.645742 2.725525 48.181671 10.789708 17.642931 -4.092069 10.144535 -5.981115 -9.210907 6.385003 5.700089 
-0.079921 0.875413 0.996182 -102.725523 -0.516949 85.361418 -1.568670 2.597274 -0.437862 -5.050408 0.994509 2.965348 5.557393 12.437374 -9.832929 0.000000 -0.000000 0.000000 1.795468 -5.850802 6.010317 4.074567 0.656125 16.188790 1.958621 -4.892775 -13.631080 0.000000 -0.000000 0.000000 0.238280 3.812495 4.877045 3.605270 -3.476396 2.242735 1.870398 1.176223 -7.814299 6.314984 11.212876 -6.865698 7.171811 15.280894 21.081815 -28.608478 -5.560644 4.489617 -46.401549 2.696722 15.370276 -20.981151 -24.305993 0.366972 24.743567 -1.606992 -15.536438 31.340129 9.813782 2.943156 47.421087 10.196771 16.977730 -4.233800 9.987909 -7.073285 -8.147827 6.884447 6.831262 
-0.092954 0.877002 0.990754 -102.623020 -0.687847 85.260066 -1.073654 2.651998 0.898044 -6.083599 0.289444 2.491915 6.343460 12.931885 -11.220627 0.000000 -0.000000 0.000000 1.086580 -5.314465 3.781240 4.759286 -0.049517 22.115770 2.329826 -5.083548 -15.786512 0.000000 -0.000000 0.000000 -0.885221 3.251242 5.274996 3.925411 -3.317186 2.159151 2.298765 0.941762 -7.692529 6.982443 11.678561 -7.013633 7.221203 15.136403 21.337792 -28.879996 -6.386648 4.306098 -46.601961 1.564632 14.941271 -20.605710 -24.731398 0.311403 24.933371 -1.238654 -15.532157 32.012870 9.814877 2.969838 47.000321 9.599326 17.113201 -4.722190 9.204760 -5.962656 -7.060820 5.726867 8.062031 
-0.110000 0.879500 0.987067 -102.299079 -0.904846 84.673506 -0.998663 3.050963 2.799278 -6.675036 -0.558855 2.194998 6.697806 12.953526 -12.409297 0.000000 -0.000000 0.000000 0.402758 -5.308236 1.385842 4.852159 -1.727256 29.017529 2.477608 -5.431781 -17.543448 0.000000 -0.000000 0.000000 -1.517620 2.356238 6.396308 3.816594 -3.586924 1.657892 2.397651 0.392160 -7.511490 7.435342 11.954943 -6.822191 7.348053 15.884603 21.929512 -28.846655 -7.161622 3.911069 -46.877939 -0.040832 14.654477 -19.942771 -25.775108 -0.208069 26.520827 -0.635129 -16.243493 31.847537 9.950374 2.712334 48.253349 8.818654 17.766573 -4.188070 7.727989 -5.564834 -7.373866 6.062709 6.630357 
-0.120730 0.880403 0.987158 -101.675773 -0.686642 84.229674 -0.869445 3.117541 4.188833 -6.525885 -1.066227 1.702474 6.569101 12.589145 -12.931051 0.000000 -0.000000 0.000000 0.383167 -6.054597 0.877869 4.289325 -3.336435 30.863604 2.434023 -6.562859 -18.807702 0.000000 -0.000000 0.000000 -0.833939 1.598472 6.975551 3.523356 -3.852054 1.248635 2.114654 -0.122927 -7.170674 7.283315 12.440268 -6.076097 7.302407 16.505052 21.676750 -28.733231 -8.010361 3.869363 -47.243670 -1.218857 14.509055 -19.112559 -26.349827 -0.218824 27.144191 0.026323 -15.993641 30.955239 9.979458 2.527503 49.890470 8.575846 17.934294 -4.174470 6.512888 -5.234448 -7.462973 5.774922 5.784049 
-0.135319 0.883953 0.990356 -100.928986 -0.109750 83.905657 -0.151619 3.253389 6.038028 -6.221635 -2.387093 0.837764 5.807302 12.135038 -12.941575 0.000000 -0.000000 0.000000 1.272736 -6.065045 1.057364 3.435038 -4.585336 28.906794 1.024821 -7.883100 -21.310698 0.000000 -0.000000 0.000000 -0.066603 0.820003 7.084944 3.401634 -4.114010 0.848648 2.161122 -0.651705 -6.732793 6.898264 12.814305 -5.168738 7.172551 17.005809 21.586109 -28.653842 -9.106297 3.956744 -47.941715 -2.854261 14.099385 -18.376974 -27.521854 -0.454511 26.699625 0.081095 -16.691381 29.539016 9.613873 2.449162 51.610300 7.675804 18.019412 -4.430988 6.530924 -3.289241 -6.359389 5.364399 5.466773 
-0.147870 0.887812 0.995039 -100.636215 0.377482 84.382687 0.095870 3.594856 7.469204 -5.440631 -2.590856 -1.082034 4.612393 12.048477 -12.767894 0.000000 -0.000000 0.000000 2.061186 -5.867323 0.036902 3.036528 -5.075424 24.481387 0.744835 -9.178484 -23.068031 0.000000 -0.000000 0.000000 0.452549 -0.001340 6.800139 3.387776 -4.173176 0.250738 2.305044 -1.070971 -6.550415 6.700809 13.367987 -4.790912 7.472032 17.877717 21.782122 -28.239595 -9.412545 3.780069 -48.840658 -3.920674 14.437720 -17.584771 -30.144423 -0.191246 28.175428 1.070569 -17.363636 28.350670 9.106465 2.742720 52.524217 6.852508 18.516627 -4.042494 7.658388 -1.425702 -6.415146 4.606016 5.168590 
-0.158549 0.892517 0.998411 -100.288510 1.013212 85.462454 0.550196 3.887390 8.211667 -4.503188 -2.798928 -3.251357 4.003973 11.623771 -12.604901 0.000000 -0.000000 0.000000 2.927521 -5.989561 -1.687044 2.409442 -5.971981 18.895006 0.562615 -9.914607 -23.207621 0.000000 -0.000000 0.000000 0.852644 -0.731668 5.991559 3.669669 -4.373808 0.154918 2.569057 -1.310799 -6.926398 6.426094 13.933001 -4.423887 7.255832 18.194713 21.100542 -27.411816 -9.406716 3.479897 -49.879205 -4.978382 15.037444 -17.205418 -33.454078 0.552583 26.400167 0.062417 -17.729262 27.183780 9.078630 3.037995 53.521389 6.917417 18.580732 -4.017659 7.064417 -0.647917 -5.278711 5.038983 5.215780 
